<svg xmlns="http://www.w3.org/2000/svg" viewBox="0 0 463 148">
    <g fill="#FFFFFF" fill-rule="evenodd">
        <path d="M47.71 111.537v-.896c0-7.44-2.014-11.582-8.673-11.582-5.315 0-7.945 4.533-7.945 11.638 0 7.162 2.63 11.303 8.002 11.303 6.322 0 8.616-3.469 8.616-10.463m-21.71-.95c0-10.297 4.924-15.612 12.366-15.612 4.644 0 7.442 1.958 9.288 4.42h.336c-.112-.952-.336-3.3-.336-4.42V84.902L52.578 83v42.525h-3.972l-.728-4.028h-.224c-1.791 2.573-4.644 4.588-9.344 4.588-7.442 0-12.31-5.204-12.31-15.499M71.488 122c6.043 0 8.784-4.42 8.784-11.526 0-7.107-2.74-11.359-8.84-11.359-6.099 0-8.729 4.252-8.729 11.359 0 7.106 2.685 11.526 8.785 11.526m-.112 4.085c-7.946 0-13.765-5.651-13.765-15.611 0-9.904 5.315-15.499 13.933-15.499 8.113 0 13.82 5.595 13.82 15.499 0 9.96-5.427 15.611-13.988 15.611M112.274 126.085c-4.477 0-8.449-.672-10.968-1.902l1.568-4.141c1.734.783 5.371 1.679 9.624 1.679 5.93 0 9.008-2.462 9.008-6.435 0-3.917-2.182-5.596-9.4-8.225-6.827-2.462-10.296-5.652-10.296-11.863 0-6.322 5.204-10.183 12.758-10.183 4.364 0 8.001.895 11.022 2.238l-1.622 4.309c-2.798-1.175-6.043-2.126-9.512-2.126-4.98 0-7.554 2.349-7.554 5.818 0 4.029 2.238 5.651 8.728 8.058 7.051 2.629 10.912 5.259 10.912 11.526 0 7.106-5.539 11.247-14.268 11.247M150.769 83.225c-1.4 2.07-5.372 6.378-8.002 8.393h-3.245v-.671c1.623-2.071 4.028-5.764 5.315-8.282h5.932v.56zm-15.556 24.34h15.276c-.056-5.092-2.294-8.562-7.274-8.562-4.7 0-7.498 3.19-8.002 8.562zm20.424.95v2.966h-20.535c.168 6.77 3.58 10.408 9.567 10.408 2.91 0 5.876-.56 8.226-1.455l1.398 3.693c-3.077 1.343-5.762 1.958-9.847 1.958-8.561 0-14.436-5.315-14.436-15.331 0-9.848 5.316-15.78 13.26-15.78 7.667 0 12.367 5.372 12.367 13.542zM173.818 121.33l1.344 3.523c-1.064.672-3.19 1.232-5.485 1.232-4.699 0-8.784-2.015-8.784-9.288V90.498l4.924-1.847v6.883h8.673v3.805h-8.673v17.345c0 3.637 1.958 5.373 4.7 5.373 1.12 0 2.63-.392 3.301-.728M180.699 125.525h4.924V95.534h-4.924v29.991zm5.372-38.104c0 2.126-1.343 3.133-2.854 3.133-1.622 0-2.909-1.007-2.909-3.133 0-2.183 1.287-3.134 2.909-3.134 1.511 0 2.854.951 2.854 3.134zM236.82 105.997v19.528h-4.869v-19.303c0-4.7-1.958-7.107-6.099-7.107-5.819 0-8.113 3.47-8.113 9.848v16.562h-4.868v-19.303c0-4.7-1.959-7.107-6.156-7.107-6.042 0-8 3.861-8 10.855v15.555h-4.924v-29.99h3.972l.727 4.084h.28c1.847-3.134 5.26-4.644 8.841-4.644 4.588 0 7.722 1.623 9.177 5.036h.28c2.014-3.413 5.706-5.036 9.623-5.036 6.771 0 10.128 3.3 10.128 11.022M256.063 122c6.043 0 8.785-4.42 8.785-11.526 0-7.107-2.742-11.359-8.84-11.359-6.099 0-8.729 4.252-8.729 11.359 0 7.106 2.685 11.526 8.784 11.526m-.11 4.085c-7.948 0-13.766-5.651-13.766-15.611 0-9.904 5.315-15.499 13.933-15.499 8.113 0 13.82 5.595 13.82 15.499 0 9.96-5.428 15.611-13.988 15.611M300.04 89.883h-6.548v31.334h5.428c10.8 0 16.226-5.371 16.226-15.891 0-10.631-5.483-15.443-15.107-15.443m-.447 35.643h-11.135V85.574h12.31c12.03 0 19.695 6.77 19.695 19.584 0 13.485-7.722 20.368-20.87 20.368M326.39 125.525h4.924V95.534h-4.924v29.991zm5.372-38.104c0 2.126-1.343 3.133-2.854 3.133-1.623 0-2.91-1.007-2.91-3.133 0-2.183 1.287-3.134 2.91-3.134 1.511 0 2.854.951 2.854 3.134zM351.4 111.033c-7.498.28-9.904 2.406-9.904 6.211 0 3.357 2.238 4.868 5.484 4.868 5.035 0 8.84-2.742 8.84-8.56v-2.687l-4.42.168zm9.288-5.93v20.422h-3.58l-.952-4.253h-.224c-2.63 3.302-5.036 4.813-10.07 4.813-5.429 0-9.458-2.798-9.458-8.897 0-5.987 4.59-9.289 14.381-9.568l5.092-.168v-1.79c0-4.98-2.294-6.659-6.21-6.659-3.135 0-5.989 1.12-8.45 2.294l-1.51-3.693c2.63-1.399 6.321-2.574 10.238-2.574 7.274 0 10.743 3.078 10.743 10.072zM365.442 87.14c.503 0 .84-.278.84-.727 0-.447-.28-.67-.84-.67h-.504v1.398h.504zm-1.287-2.07h1.287c1.12 0 1.622.449 1.622 1.343 0 .617-.392.953-.783 1.12l1.175 1.959h-.895l-1.008-1.735h-.615v1.735h-.783V85.07zm4.532 2.239c0-1.734-1.287-3.19-3.134-3.19-1.845 0-3.132 1.343-3.132 3.19 0 1.734 1.287 3.134 3.132 3.134 1.736 0 3.134-1.287 3.134-3.134zm-6.826 0c0-2.182 1.511-3.75 3.692-3.75 2.071 0 3.694 1.568 3.694 3.75 0 2.127-1.567 3.693-3.694 3.693-2.18 0-3.692-1.566-3.692-3.693z"/>
        <g>
            <path d="M27.398 65.525l1.68-4.477h3.02V29.994h-4.7v-4.42h14.437l-1.679 4.42h-3.022v31.054h4.701v4.477zM63.654 45.103c0-4.365-2.07-6.547-6.154-6.547-4.085 0-6.156 2.238-6.156 6.603 0 4.14 2.071 6.21 6.211 6.21 4.085 0 6.1-2.125 6.1-6.266m3.356 24.004c0-1.623-.447-2.686-1.342-3.245-.952-.56-2.743-.84-5.428-.84h-5.148c-4.196 0-6.266 1.79-6.266 5.428 0 3.133 2.462 4.756 7.386 4.756 7.217 0 10.798-2.014 10.798-6.1m-22.884 1.512c0-3.861 2.181-6.324 6.546-7.386-1.735-.84-2.63-2.294-2.63-4.196 0-2.071 1.231-3.806 3.637-5.26-3.413-1.4-5.204-4.981-5.204-8.45 0-6.994 4.365-10.351 11.192-10.351 1.566 0 2.91.168 4.084.56h10.351l-1.455 3.804h-3.916c1.175 1.567 1.79 3.526 1.79 5.82 0 6.21-4.532 9.624-11.022 9.624-1.008 0-1.79-.056-2.35-.168-1.848 1.007-2.742 2.238-2.742 3.636 0 1.51 1.511 2.295 4.42 2.295h5.092c6.043 0 9.792 2.742 9.792 8.114 0 6.88-5.148 10.295-15.444 10.295-6.994 0-12.14-2.407-12.14-8.337M94.37 35.31l-.615 4.533c-.95-.223-2.239-.391-3.245-.391-4.645 0-8.729 4.028-8.729 10.07v16.004h-4.924V35.535h4.03l.558 5.483h.224c1.902-3.302 4.98-6.043 9.177-6.043 1.12 0 2.517.11 3.524.336M100.132 47.564h15.275c-.055-5.092-2.294-8.562-7.273-8.562-4.7 0-7.498 3.19-8.002 8.562m20.424.951v2.965H100.02c.168 6.771 3.58 10.408 9.567 10.408 2.91 0 5.876-.559 8.226-1.455l1.398 3.693c-3.077 1.343-5.763 1.96-9.848 1.96-8.56 0-14.435-5.317-14.435-15.333 0-9.848 5.315-15.779 13.26-15.779 7.667 0 12.367 5.371 12.367 13.541M128.61 24.287c1.511 0 2.854.951 2.854 3.134 0 2.126-1.343 3.133-2.854 3.133-1.623 0-2.91-1.007-2.91-3.133 0-2.183 1.287-3.134 2.91-3.134zm-6.435 50.583c3.19-1.455 3.917-3.58 3.917-8.897V35.534h4.924v30.72c0 5.874-1.567 10.518-7.274 12.7l-1.567-4.084zM151.102 51.033c-7.497.28-9.903 2.406-9.903 6.211 0 3.357 2.238 4.868 5.483 4.868 5.036 0 8.84-2.742 8.84-8.56v-2.687l-4.42.168zm9.289-5.93v20.422h-3.581l-.951-4.253h-.224c-2.63 3.302-5.036 4.813-10.072 4.813-5.428 0-9.456-2.798-9.456-8.897 0-5.987 4.588-9.289 14.38-9.568l5.092-.168v-1.79c0-4.98-2.294-6.659-6.211-6.659-3.133 0-5.987 1.12-8.45 2.294l-1.51-3.693c2.63-1.399 6.323-2.574 10.24-2.574 7.273 0 10.743 3.078 10.743 10.072zM196.924 36.598c-.336-.896-1.511-4.59-1.902-5.987-.56 2.294-1.287 4.7-1.736 5.987l-4.532 12.086H201.4l-4.477-12.086zm5.987 16.562h-15.835l-4.756 12.366h-5.092l15.61-40.12h4.533l15.556 40.12h-5.204L202.91 53.16zM235.585 51.537v-.896c0-7.44-2.015-11.582-8.673-11.582-5.315 0-7.945 4.533-7.945 11.638 0 7.162 2.63 11.303 8.001 11.303 6.323 0 8.617-3.469 8.617-10.463m-21.71-.95c0-10.297 4.924-15.612 12.365-15.612 4.645 0 7.443 1.958 9.288 4.42h.336c-.111-.952-.336-3.3-.336-4.42V24.902L240.453 23v42.525h-3.972l-.728-4.028h-.225c-1.79 2.573-4.643 4.588-9.343 4.588-7.443 0-12.31-5.204-12.31-15.499M244.534 35.534h5.26l6.38 17.682c.894 2.462 2.07 6.098 2.405 7.945h.224c.391-1.847 1.678-5.54 2.517-7.945l6.38-17.682h5.26l-11.415 29.991h-5.652l-11.359-29.99zM279.951 47.564h15.275c-.056-5.092-2.294-8.562-7.274-8.562-4.7 0-7.498 3.19-8 8.562m20.422.951v2.965H279.84c.168 6.771 3.581 10.408 9.568 10.408 2.91 0 5.875-.559 8.226-1.455l1.398 3.693c-3.077 1.343-5.764 1.96-9.848 1.96-8.56 0-14.436-5.317-14.436-15.333 0-9.848 5.315-15.779 13.261-15.779 7.666 0 12.366 5.371 12.366 13.541M330.978 45.997v19.528h-4.868V46.333c0-4.812-2.125-7.218-6.714-7.218-6.659 0-8.785 3.861-8.785 10.855v15.555h-4.923v-29.99h3.973l.726 4.084h.28c1.959-3.134 5.651-4.644 9.458-4.644 7.161 0 10.853 3.3 10.853 11.022M351.007 61.33l1.344 3.523c-1.064.672-3.19 1.232-5.485 1.232-4.7 0-8.784-2.015-8.784-9.288V30.498l4.924-1.847v6.883h8.673v3.805h-8.673v17.345c0 3.637 1.958 5.373 4.7 5.373 1.119 0 2.63-.392 3.3-.728M357.888 65.525h4.924V35.534h-4.924v29.991zm5.371-38.104c0 2.126-1.343 3.133-2.854 3.133-1.623 0-2.91-1.007-2.91-3.133 0-2.183 1.287-3.134 2.91-3.134 1.511 0 2.854.951 2.854 3.134zM378.757 66.085c-4.197 0-7.106-.672-9.4-1.902l1.454-3.805c1.959.839 5.204 1.734 8.057 1.734 4.98 0 7.107-1.734 7.107-4.421 0-2.237-1.511-3.581-7.386-5.818-5.82-2.238-9.29-4.029-9.29-8.953 0-5.092 4.533-7.945 11.248-7.945 3.637 0 6.77.783 9.568 2.014l-1.51 3.973c-2.575-1.119-5.484-1.959-8.394-1.959-4.028 0-6.211 1.399-6.211 3.638 0 2.517 1.959 3.524 7.722 5.707 5.708 2.126 9.009 4.085 9.009 8.896 0 5.82-4.645 8.841-11.974 8.841M409.696 61.33l1.344 3.523c-1.064.672-3.19 1.232-5.485 1.232-4.699 0-8.784-2.015-8.784-9.288V30.498l4.924-1.847v6.883h8.673v3.805h-8.673v17.345c0 3.637 1.958 5.373 4.7 5.373 1.12 0 2.63-.392 3.301-.728M428.272 51.033c-7.498.28-9.904 2.406-9.904 6.211 0 3.357 2.238 4.868 5.483 4.868 5.036 0 8.84-2.742 8.84-8.56v-2.687l-4.42.168zm9.288-5.93v20.422h-3.582l-.95-4.253h-.225c-2.63 3.302-5.036 4.813-10.07 4.813-5.428 0-9.457-2.798-9.457-8.897 0-5.987 4.589-9.289 14.38-9.568l5.092-.168v-1.79c0-4.98-2.293-6.659-6.21-6.659-3.135 0-5.988 1.12-8.45 2.294l-1.51-3.693c2.63-1.399 6.322-2.574 10.239-2.574 7.274 0 10.743 3.078 10.743 10.072z"/>
        </g>
    </g>
</svg>
